<mxfile host="app.diagrams.net" agent="Mozilla/5.0 (Macintosh; Intel Mac OS X 10_15_7) AppleWebKit/537.36 (KHTML, like Gecko) Chrome/129.0.0.0 Safari/537.36" version="24.7.16">
  <diagram name="第 1 页" id="ahQFvJ0ZoyeQMewBPo_Q">
    <mxGraphModel dx="2653" dy="1140" grid="1" gridSize="10" guides="1" tooltips="1" connect="1" arrows="1" fold="1" page="1" pageScale="1" pageWidth="827" pageHeight="1169" math="0" shadow="0">
      <root>
        <mxCell id="0" />
        <mxCell id="1" parent="0" />
        <mxCell id="lLp3U-felz3f5xejzUhQ-14" value="" style="edgeStyle=orthogonalEdgeStyle;rounded=0;orthogonalLoop=1;jettySize=auto;html=1;" edge="1" parent="1" source="lLp3U-felz3f5xejzUhQ-1" target="lLp3U-felz3f5xejzUhQ-2">
          <mxGeometry relative="1" as="geometry" />
        </mxCell>
        <mxCell id="lLp3U-felz3f5xejzUhQ-1" value="main" style="strokeWidth=2;html=1;shape=mxgraph.flowchart.start_1;whiteSpace=wrap;" vertex="1" parent="1">
          <mxGeometry x="190" y="70" width="100" height="60" as="geometry" />
        </mxCell>
        <mxCell id="lLp3U-felz3f5xejzUhQ-15" value="" style="edgeStyle=orthogonalEdgeStyle;rounded=0;orthogonalLoop=1;jettySize=auto;html=1;" edge="1" parent="1" source="lLp3U-felz3f5xejzUhQ-2" target="lLp3U-felz3f5xejzUhQ-3">
          <mxGeometry relative="1" as="geometry" />
        </mxCell>
        <mxCell id="lLp3U-felz3f5xejzUhQ-2" value="&lt;div&gt;&lt;p style=&quot;margin: 12px 0px 0px 13px; text-indent: -13px; font-variant-numeric: normal; font-variant-east-asian: normal; font-variant-alternates: normal; font-size-adjust: none; font-kerning: auto; font-optical-sizing: auto; font-feature-settings: normal; font-variation-settings: normal; font-variant-position: normal; font-stretch: normal; font-size: 14px; line-height: normal; font-family: &amp;quot;.AppleSystemUIFontMonospaced&amp;quot;; color: rgb(14, 14, 14); text-align: start;&quot; class=&quot;p1&quot;&gt;&lt;span style=&quot;font-variant-numeric: normal; font-variant-east-asian: normal; font-variant-alternates: normal; font-size-adjust: none; font-kerning: auto; font-optical-sizing: auto; font-feature-settings: normal; font-variation-settings: normal; font-variant-position: normal; font-stretch: normal; line-height: normal; font-family: &amp;quot;.SF NS&amp;quot;;&quot; class=&quot;s1&quot;&gt;输入多个日期&lt;/span&gt;&lt;/p&gt;&lt;/div&gt;" style="shape=parallelogram;html=1;strokeWidth=2;perimeter=parallelogramPerimeter;whiteSpace=wrap;rounded=1;arcSize=12;size=0.23;" vertex="1" parent="1">
          <mxGeometry x="190" y="180" width="100" height="60" as="geometry" />
        </mxCell>
        <mxCell id="lLp3U-felz3f5xejzUhQ-4" style="edgeStyle=orthogonalEdgeStyle;rounded=0;orthogonalLoop=1;jettySize=auto;html=1;exitX=1;exitY=0.5;exitDx=0;exitDy=0;exitPerimeter=0;entryX=1;entryY=0.5;entryDx=0;entryDy=0;" edge="1" parent="1" source="lLp3U-felz3f5xejzUhQ-3" target="lLp3U-felz3f5xejzUhQ-2">
          <mxGeometry relative="1" as="geometry">
            <Array as="points">
              <mxPoint x="310" y="340" />
              <mxPoint x="310" y="210" />
            </Array>
          </mxGeometry>
        </mxCell>
        <mxCell id="lLp3U-felz3f5xejzUhQ-26" value="NO" style="edgeLabel;html=1;align=center;verticalAlign=middle;resizable=0;points=[];" vertex="1" connectable="0" parent="lLp3U-felz3f5xejzUhQ-4">
          <mxGeometry x="-0.0964" y="-1" relative="1" as="geometry">
            <mxPoint as="offset" />
          </mxGeometry>
        </mxCell>
        <mxCell id="lLp3U-felz3f5xejzUhQ-16" value="" style="edgeStyle=orthogonalEdgeStyle;rounded=0;orthogonalLoop=1;jettySize=auto;html=1;" edge="1" parent="1" source="lLp3U-felz3f5xejzUhQ-3" target="lLp3U-felz3f5xejzUhQ-5">
          <mxGeometry relative="1" as="geometry" />
        </mxCell>
        <mxCell id="lLp3U-felz3f5xejzUhQ-27" value="YES" style="edgeLabel;html=1;align=center;verticalAlign=middle;resizable=0;points=[];" vertex="1" connectable="0" parent="lLp3U-felz3f5xejzUhQ-16">
          <mxGeometry x="-0.3429" y="3" relative="1" as="geometry">
            <mxPoint as="offset" />
          </mxGeometry>
        </mxCell>
        <mxCell id="lLp3U-felz3f5xejzUhQ-3" value="是否还有更多输入" style="strokeWidth=2;html=1;shape=mxgraph.flowchart.decision;whiteSpace=wrap;" vertex="1" parent="1">
          <mxGeometry x="190" y="290" width="100" height="100" as="geometry" />
        </mxCell>
        <mxCell id="lLp3U-felz3f5xejzUhQ-17" value="" style="edgeStyle=orthogonalEdgeStyle;rounded=0;orthogonalLoop=1;jettySize=auto;html=1;" edge="1" parent="1" source="lLp3U-felz3f5xejzUhQ-5" target="lLp3U-felz3f5xejzUhQ-6">
          <mxGeometry relative="1" as="geometry" />
        </mxCell>
        <mxCell id="lLp3U-felz3f5xejzUhQ-5" value="遍历日期" style="rounded=1;whiteSpace=wrap;html=1;absoluteArcSize=1;arcSize=14;strokeWidth=2;" vertex="1" parent="1">
          <mxGeometry x="190" y="460" width="100" height="100" as="geometry" />
        </mxCell>
        <mxCell id="lLp3U-felz3f5xejzUhQ-18" value="" style="edgeStyle=orthogonalEdgeStyle;rounded=0;orthogonalLoop=1;jettySize=auto;html=1;" edge="1" parent="1" source="lLp3U-felz3f5xejzUhQ-6" target="lLp3U-felz3f5xejzUhQ-7">
          <mxGeometry relative="1" as="geometry" />
        </mxCell>
        <mxCell id="lLp3U-felz3f5xejzUhQ-6" value="调用nextDay函数" style="rounded=1;whiteSpace=wrap;html=1;absoluteArcSize=1;arcSize=14;strokeWidth=2;" vertex="1" parent="1">
          <mxGeometry x="190" y="630" width="100" height="100" as="geometry" />
        </mxCell>
        <mxCell id="lLp3U-felz3f5xejzUhQ-19" value="" style="edgeStyle=orthogonalEdgeStyle;rounded=0;orthogonalLoop=1;jettySize=auto;html=1;" edge="1" parent="1" source="lLp3U-felz3f5xejzUhQ-7" target="lLp3U-felz3f5xejzUhQ-8">
          <mxGeometry relative="1" as="geometry" />
        </mxCell>
        <mxCell id="lLp3U-felz3f5xejzUhQ-7" value="判断闰年" style="strokeWidth=2;html=1;shape=mxgraph.flowchart.decision;whiteSpace=wrap;" vertex="1" parent="1">
          <mxGeometry x="190" y="790" width="100" height="100" as="geometry" />
        </mxCell>
        <mxCell id="lLp3U-felz3f5xejzUhQ-21" value="" style="edgeStyle=orthogonalEdgeStyle;rounded=0;orthogonalLoop=1;jettySize=auto;html=1;" edge="1" parent="1" source="lLp3U-felz3f5xejzUhQ-8" target="lLp3U-felz3f5xejzUhQ-9">
          <mxGeometry relative="1" as="geometry" />
        </mxCell>
        <mxCell id="lLp3U-felz3f5xejzUhQ-8" value="计算月份天数" style="rounded=1;whiteSpace=wrap;html=1;absoluteArcSize=1;arcSize=14;strokeWidth=2;" vertex="1" parent="1">
          <mxGeometry x="190" y="940" width="100" height="100" as="geometry" />
        </mxCell>
        <mxCell id="lLp3U-felz3f5xejzUhQ-23" value="" style="edgeStyle=orthogonalEdgeStyle;rounded=0;orthogonalLoop=1;jettySize=auto;html=1;" edge="1" parent="1" source="lLp3U-felz3f5xejzUhQ-9" target="lLp3U-felz3f5xejzUhQ-10">
          <mxGeometry relative="1" as="geometry" />
        </mxCell>
        <mxCell id="lLp3U-felz3f5xejzUhQ-9" value="增加日期并且处理溢出" style="rounded=1;whiteSpace=wrap;html=1;absoluteArcSize=1;arcSize=14;strokeWidth=2;" vertex="1" parent="1">
          <mxGeometry x="190" y="1080" width="100" height="100" as="geometry" />
        </mxCell>
        <mxCell id="lLp3U-felz3f5xejzUhQ-22" value="" style="edgeStyle=orthogonalEdgeStyle;rounded=0;orthogonalLoop=1;jettySize=auto;html=1;" edge="1" parent="1" source="lLp3U-felz3f5xejzUhQ-10" target="lLp3U-felz3f5xejzUhQ-11">
          <mxGeometry relative="1" as="geometry" />
        </mxCell>
        <mxCell id="lLp3U-felz3f5xejzUhQ-29" value="NO" style="edgeLabel;html=1;align=center;verticalAlign=middle;resizable=0;points=[];" vertex="1" connectable="0" parent="lLp3U-felz3f5xejzUhQ-22">
          <mxGeometry x="-0.2" y="1" relative="1" as="geometry">
            <mxPoint as="offset" />
          </mxGeometry>
        </mxCell>
        <mxCell id="lLp3U-felz3f5xejzUhQ-24" value="" style="edgeStyle=orthogonalEdgeStyle;rounded=0;orthogonalLoop=1;jettySize=auto;html=1;" edge="1" parent="1" source="lLp3U-felz3f5xejzUhQ-10" target="lLp3U-felz3f5xejzUhQ-12">
          <mxGeometry relative="1" as="geometry" />
        </mxCell>
        <mxCell id="lLp3U-felz3f5xejzUhQ-30" value="YES" style="edgeLabel;html=1;align=center;verticalAlign=middle;resizable=0;points=[];" vertex="1" connectable="0" parent="lLp3U-felz3f5xejzUhQ-24">
          <mxGeometry x="-0.2667" y="2" relative="1" as="geometry">
            <mxPoint as="offset" />
          </mxGeometry>
        </mxCell>
        <mxCell id="lLp3U-felz3f5xejzUhQ-10" value="日期是否合法" style="strokeWidth=2;html=1;shape=mxgraph.flowchart.decision;whiteSpace=wrap;" vertex="1" parent="1">
          <mxGeometry x="190" y="1220" width="100" height="100" as="geometry" />
        </mxCell>
        <mxCell id="lLp3U-felz3f5xejzUhQ-11" value="错误处理" style="rounded=1;whiteSpace=wrap;html=1;absoluteArcSize=1;arcSize=14;strokeWidth=2;" vertex="1" parent="1">
          <mxGeometry x="340" y="1220" width="100" height="100" as="geometry" />
        </mxCell>
        <mxCell id="lLp3U-felz3f5xejzUhQ-25" value="" style="edgeStyle=orthogonalEdgeStyle;rounded=0;orthogonalLoop=1;jettySize=auto;html=1;" edge="1" parent="1" source="lLp3U-felz3f5xejzUhQ-12" target="lLp3U-felz3f5xejzUhQ-13">
          <mxGeometry relative="1" as="geometry" />
        </mxCell>
        <mxCell id="lLp3U-felz3f5xejzUhQ-12" value="输出新日期" style="shape=parallelogram;html=1;strokeWidth=2;perimeter=parallelogramPerimeter;whiteSpace=wrap;rounded=1;arcSize=12;size=0.23;" vertex="1" parent="1">
          <mxGeometry x="190" y="1380" width="100" height="60" as="geometry" />
        </mxCell>
        <mxCell id="lLp3U-felz3f5xejzUhQ-13" value="结束" style="strokeWidth=2;html=1;shape=mxgraph.flowchart.start_1;whiteSpace=wrap;" vertex="1" parent="1">
          <mxGeometry x="190" y="1490" width="100" height="60" as="geometry" />
        </mxCell>
        <mxCell id="lLp3U-felz3f5xejzUhQ-35" value="" style="edgeStyle=orthogonalEdgeStyle;rounded=0;orthogonalLoop=1;jettySize=auto;html=1;" edge="1" parent="1" source="lLp3U-felz3f5xejzUhQ-31" target="lLp3U-felz3f5xejzUhQ-33">
          <mxGeometry relative="1" as="geometry" />
        </mxCell>
        <mxCell id="lLp3U-felz3f5xejzUhQ-31" value="检查输入年份" style="rounded=1;whiteSpace=wrap;html=1;absoluteArcSize=1;arcSize=14;strokeWidth=2;" vertex="1" parent="1">
          <mxGeometry x="580" y="132" width="100" height="100" as="geometry" />
        </mxCell>
        <mxCell id="lLp3U-felz3f5xejzUhQ-32" value="nextDay函数" style="text;html=1;align=center;verticalAlign=middle;resizable=0;points=[];autosize=1;strokeColor=none;fillColor=none;" vertex="1" parent="1">
          <mxGeometry x="580" y="70" width="90" height="30" as="geometry" />
        </mxCell>
        <mxCell id="lLp3U-felz3f5xejzUhQ-36" value="" style="edgeStyle=orthogonalEdgeStyle;rounded=0;orthogonalLoop=1;jettySize=auto;html=1;" edge="1" parent="1" source="lLp3U-felz3f5xejzUhQ-33" target="lLp3U-felz3f5xejzUhQ-34">
          <mxGeometry relative="1" as="geometry" />
        </mxCell>
        <mxCell id="lLp3U-felz3f5xejzUhQ-37" value="NO" style="edgeLabel;html=1;align=center;verticalAlign=middle;resizable=0;points=[];" vertex="1" connectable="0" parent="lLp3U-felz3f5xejzUhQ-36">
          <mxGeometry x="-0.36" y="1" relative="1" as="geometry">
            <mxPoint as="offset" />
          </mxGeometry>
        </mxCell>
        <mxCell id="lLp3U-felz3f5xejzUhQ-39" value="" style="edgeStyle=orthogonalEdgeStyle;rounded=0;orthogonalLoop=1;jettySize=auto;html=1;" edge="1" parent="1" source="lLp3U-felz3f5xejzUhQ-33" target="lLp3U-felz3f5xejzUhQ-38">
          <mxGeometry relative="1" as="geometry" />
        </mxCell>
        <mxCell id="lLp3U-felz3f5xejzUhQ-33" value="是否合法" style="strokeWidth=2;html=1;shape=mxgraph.flowchart.decision;whiteSpace=wrap;" vertex="1" parent="1">
          <mxGeometry x="580" y="272" width="100" height="100" as="geometry" />
        </mxCell>
        <mxCell id="lLp3U-felz3f5xejzUhQ-34" value="错误处理" style="rounded=1;whiteSpace=wrap;html=1;absoluteArcSize=1;arcSize=14;strokeWidth=2;" vertex="1" parent="1">
          <mxGeometry x="730" y="272" width="100" height="100" as="geometry" />
        </mxCell>
        <mxCell id="lLp3U-felz3f5xejzUhQ-41" value="" style="edgeStyle=orthogonalEdgeStyle;rounded=0;orthogonalLoop=1;jettySize=auto;html=1;" edge="1" parent="1" source="lLp3U-felz3f5xejzUhQ-38" target="lLp3U-felz3f5xejzUhQ-40">
          <mxGeometry relative="1" as="geometry" />
        </mxCell>
        <mxCell id="lLp3U-felz3f5xejzUhQ-38" value="检查月份是否合法" style="rounded=1;whiteSpace=wrap;html=1;absoluteArcSize=1;arcSize=14;strokeWidth=2;" vertex="1" parent="1">
          <mxGeometry x="580" y="412" width="100" height="100" as="geometry" />
        </mxCell>
        <mxCell id="lLp3U-felz3f5xejzUhQ-43" value="" style="edgeStyle=orthogonalEdgeStyle;rounded=0;orthogonalLoop=1;jettySize=auto;html=1;" edge="1" parent="1" source="lLp3U-felz3f5xejzUhQ-40" target="lLp3U-felz3f5xejzUhQ-42">
          <mxGeometry relative="1" as="geometry" />
        </mxCell>
        <mxCell id="lLp3U-felz3f5xejzUhQ-44" value="NO" style="edgeLabel;html=1;align=center;verticalAlign=middle;resizable=0;points=[];" vertex="1" connectable="0" parent="lLp3U-felz3f5xejzUhQ-43">
          <mxGeometry x="-0.12" y="2" relative="1" as="geometry">
            <mxPoint as="offset" />
          </mxGeometry>
        </mxCell>
        <mxCell id="lLp3U-felz3f5xejzUhQ-46" value="" style="edgeStyle=orthogonalEdgeStyle;rounded=0;orthogonalLoop=1;jettySize=auto;html=1;" edge="1" parent="1" source="lLp3U-felz3f5xejzUhQ-40" target="lLp3U-felz3f5xejzUhQ-45">
          <mxGeometry relative="1" as="geometry" />
        </mxCell>
        <mxCell id="lLp3U-felz3f5xejzUhQ-40" value="是否合法" style="strokeWidth=2;html=1;shape=mxgraph.flowchart.decision;whiteSpace=wrap;" vertex="1" parent="1">
          <mxGeometry x="580" y="552" width="100" height="100" as="geometry" />
        </mxCell>
        <mxCell id="lLp3U-felz3f5xejzUhQ-42" value="错误处理" style="rounded=1;whiteSpace=wrap;html=1;absoluteArcSize=1;arcSize=14;strokeWidth=2;" vertex="1" parent="1">
          <mxGeometry x="730" y="552" width="100" height="100" as="geometry" />
        </mxCell>
        <mxCell id="lLp3U-felz3f5xejzUhQ-48" value="" style="edgeStyle=orthogonalEdgeStyle;rounded=0;orthogonalLoop=1;jettySize=auto;html=1;" edge="1" parent="1" source="lLp3U-felz3f5xejzUhQ-45" target="lLp3U-felz3f5xejzUhQ-47">
          <mxGeometry relative="1" as="geometry" />
        </mxCell>
        <mxCell id="lLp3U-felz3f5xejzUhQ-45" value="检查日期是否合法" style="rounded=1;whiteSpace=wrap;html=1;absoluteArcSize=1;arcSize=14;strokeWidth=2;" vertex="1" parent="1">
          <mxGeometry x="580" y="682" width="100" height="100" as="geometry" />
        </mxCell>
        <mxCell id="lLp3U-felz3f5xejzUhQ-50" value="NO" style="edgeStyle=orthogonalEdgeStyle;rounded=0;orthogonalLoop=1;jettySize=auto;html=1;" edge="1" parent="1" source="lLp3U-felz3f5xejzUhQ-47" target="lLp3U-felz3f5xejzUhQ-49">
          <mxGeometry relative="1" as="geometry" />
        </mxCell>
        <mxCell id="lLp3U-felz3f5xejzUhQ-52" value="" style="edgeStyle=orthogonalEdgeStyle;rounded=0;orthogonalLoop=1;jettySize=auto;html=1;" edge="1" parent="1" source="lLp3U-felz3f5xejzUhQ-47" target="lLp3U-felz3f5xejzUhQ-51">
          <mxGeometry relative="1" as="geometry" />
        </mxCell>
        <mxCell id="lLp3U-felz3f5xejzUhQ-53" value="YES" style="edgeLabel;html=1;align=center;verticalAlign=middle;resizable=0;points=[];" vertex="1" connectable="0" parent="lLp3U-felz3f5xejzUhQ-52">
          <mxGeometry x="0.48" relative="1" as="geometry">
            <mxPoint as="offset" />
          </mxGeometry>
        </mxCell>
        <mxCell id="lLp3U-felz3f5xejzUhQ-47" value="是否合法" style="strokeWidth=2;html=1;shape=mxgraph.flowchart.decision;whiteSpace=wrap;" vertex="1" parent="1">
          <mxGeometry x="580" y="822" width="100" height="100" as="geometry" />
        </mxCell>
        <mxCell id="lLp3U-felz3f5xejzUhQ-49" value="错误处理" style="rounded=1;whiteSpace=wrap;html=1;absoluteArcSize=1;arcSize=14;strokeWidth=2;" vertex="1" parent="1">
          <mxGeometry x="730" y="822" width="100" height="100" as="geometry" />
        </mxCell>
        <mxCell id="lLp3U-felz3f5xejzUhQ-55" value="" style="edgeStyle=orthogonalEdgeStyle;rounded=0;orthogonalLoop=1;jettySize=auto;html=1;" edge="1" parent="1" source="lLp3U-felz3f5xejzUhQ-51" target="lLp3U-felz3f5xejzUhQ-54">
          <mxGeometry relative="1" as="geometry" />
        </mxCell>
        <mxCell id="lLp3U-felz3f5xejzUhQ-51" value="增加两天" style="rounded=1;whiteSpace=wrap;html=1;absoluteArcSize=1;arcSize=14;strokeWidth=2;" vertex="1" parent="1">
          <mxGeometry x="580" y="952" width="100" height="100" as="geometry" />
        </mxCell>
        <mxCell id="lLp3U-felz3f5xejzUhQ-57" value="" style="edgeStyle=orthogonalEdgeStyle;rounded=0;orthogonalLoop=1;jettySize=auto;html=1;" edge="1" parent="1" source="lLp3U-felz3f5xejzUhQ-54" target="lLp3U-felz3f5xejzUhQ-56">
          <mxGeometry relative="1" as="geometry" />
        </mxCell>
        <mxCell id="lLp3U-felz3f5xejzUhQ-54" value="检查天数是否溢出" style="rounded=1;whiteSpace=wrap;html=1;absoluteArcSize=1;arcSize=14;strokeWidth=2;" vertex="1" parent="1">
          <mxGeometry x="580" y="1102" width="100" height="100" as="geometry" />
        </mxCell>
        <mxCell id="lLp3U-felz3f5xejzUhQ-60" value="NO" style="edgeStyle=orthogonalEdgeStyle;rounded=0;orthogonalLoop=1;jettySize=auto;html=1;" edge="1" parent="1" source="lLp3U-felz3f5xejzUhQ-56" target="lLp3U-felz3f5xejzUhQ-59">
          <mxGeometry relative="1" as="geometry" />
        </mxCell>
        <mxCell id="lLp3U-felz3f5xejzUhQ-62" value="" style="edgeStyle=orthogonalEdgeStyle;rounded=0;orthogonalLoop=1;jettySize=auto;html=1;" edge="1" parent="1" source="lLp3U-felz3f5xejzUhQ-56" target="lLp3U-felz3f5xejzUhQ-61">
          <mxGeometry relative="1" as="geometry" />
        </mxCell>
        <mxCell id="lLp3U-felz3f5xejzUhQ-56" value="是否溢出" style="strokeWidth=2;html=1;shape=mxgraph.flowchart.decision;whiteSpace=wrap;" vertex="1" parent="1">
          <mxGeometry x="580" y="1242" width="100" height="100" as="geometry" />
        </mxCell>
        <mxCell id="lLp3U-felz3f5xejzUhQ-59" value="输出结果" style="shape=parallelogram;html=1;strokeWidth=2;perimeter=parallelogramPerimeter;whiteSpace=wrap;rounded=1;arcSize=12;size=0.23;" vertex="1" parent="1">
          <mxGeometry x="580" y="1392" width="100" height="60" as="geometry" />
        </mxCell>
        <mxCell id="lLp3U-felz3f5xejzUhQ-63" style="edgeStyle=orthogonalEdgeStyle;rounded=0;orthogonalLoop=1;jettySize=auto;html=1;exitX=0.5;exitY=1;exitDx=0;exitDy=0;entryX=1;entryY=0.5;entryDx=0;entryDy=0;" edge="1" parent="1" source="lLp3U-felz3f5xejzUhQ-61" target="lLp3U-felz3f5xejzUhQ-59">
          <mxGeometry relative="1" as="geometry">
            <Array as="points">
              <mxPoint x="800" y="1422" />
            </Array>
          </mxGeometry>
        </mxCell>
        <mxCell id="lLp3U-felz3f5xejzUhQ-61" value="调整月份年份" style="rounded=1;whiteSpace=wrap;html=1;absoluteArcSize=1;arcSize=14;strokeWidth=2;" vertex="1" parent="1">
          <mxGeometry x="750" y="1242" width="100" height="100" as="geometry" />
        </mxCell>
      </root>
    </mxGraphModel>
  </diagram>
</mxfile>
